<?xml version="1.0" standalone="no"?>
<!DOCTYPE svg PUBLIC "-//W3C//DTD SVG 20010904//EN"
 "http://www.w3.org/TR/2001/REC-SVG-20010904/DTD/svg10.dtd">
<svg version="1.0" xmlns="http://www.w3.org/2000/svg"
 width="900.000000pt" height="769.000000pt" viewBox="0 0 900.000000 769.000000"
 preserveAspectRatio="xMidYMid meet">
<metadata>
Created by potrace 1.13, written by Peter Selinger 2001-2015
</metadata>
<g transform="translate(0.000000,769.000000) scale(0.100000,-0.100000)"
fill="#000000" stroke="none">
<path d="M4035 7486 c-2090 -154 -2796 -209 -2875 -224 -543 -107 -977 -514
-1115 -1047 -27 -105 -45 -241 -45 -339 0 -88 225 -3172 240 -3286 62 -478
353 -881 795 -1103 50 -25 205 -106 345 -181 177 -94 286 -146 356 -168 l101
-33 6 -70 c3 -38 16 -213 28 -389 l23 -319 148 -134 c81 -74 159 -143 172
-154 l26 -20 722 549 723 549 1240 42 c3169 108 2955 97 3165 167 400 134 715
448 849 849 48 143 61 244 61 459 0 185 -93 2957 -105 3141 -16 240 -93 464
-228 665 -81 120 -702 811 -816 908 -184 156 -423 270 -663 317 -193 38 -190
38 -3153 -179z m3155 -5 c245 -56 446 -167 620 -341 183 -182 298 -401 344
-650 20 -106 246 -3174 246 -3332 0 -585 -417 -1089 -998 -1208 -73 -15 -605
-56 -2093 -164 -1097 -80 -2021 -148 -2054 -151 l-61 -6 -569 -469 c-314 -257
-571 -467 -573 -465 -1 1 -17 191 -33 421 -17 231 -33 421 -34 423 -2 2 -80
-2 -173 -9 -186 -13 -301 -5 -449 30 -462 110 -827 485 -928 955 -19 90 -247
3142 -248 3335 -2 162 10 248 55 390 61 193 160 354 307 501 177 177 389 292
636 344 39 8 381 38 760 66 380 28 1628 120 2775 204 2263 167 2288 168 2470
126z"/>
</g>
</svg>
